<?xml version="1.0" encoding="UTF-8" standalone="no"?>
<!-- Created with Inkscape (http://www.inkscape.org/) -->

<svg
   width="135.26764mm"
   height="103.5877mm"
   viewBox="0 0 135.26764 103.5877"
   version="1.1"
   id="svg1"
   inkscape:version="1.3 (0e150ed, 2023-07-21)"
   sodipodi:docname="abair.ie_solid_notext.svg"
   xmlns:inkscape="http://www.inkscape.org/namespaces/inkscape"
   xmlns:sodipodi="http://sodipodi.sourceforge.net/DTD/sodipodi-0.dtd"
   xmlns="http://www.w3.org/2000/svg"
   xmlns:svg="http://www.w3.org/2000/svg">
  <sodipodi:namedview
     id="namedview1"
     pagecolor="#ffffff"
     bordercolor="#000000"
     borderopacity="0.25"
     inkscape:showpageshadow="2"
     inkscape:pageopacity="0.0"
     inkscape:pagecheckerboard="0"
     inkscape:deskcolor="#d1d1d1"
     inkscape:document-units="mm"
     inkscape:zoom="1.6819304"
     inkscape:cx="248.22668"
     inkscape:cy="136.74763"
     inkscape:window-width="1512"
     inkscape:window-height="863"
     inkscape:window-x="1920"
     inkscape:window-y="38"
     inkscape:window-maximized="0"
     inkscape:current-layer="layer1" />
  <defs
     id="defs1">
    <inkscape:path-effect
       effect="fillet_chamfer"
       id="path-effect4"
       is_visible="true"
       lpeversion="1"
       nodesatellites_param="F,0,0,1,0,9.1963111,0,1 @ F,0,0,1,0,10.796527,0,1 @ F,0,0,1,0,16.712864,0,1 @ F,0,0,1,0,10.309997,0,1"
       radius="0"
       unit="px"
       method="auto"
       mode="F"
       chamfer_steps="1"
       flexible="false"
       use_knot_distance="true"
       apply_no_radius="true"
       apply_with_radius="true"
       only_selected="false"
       hide_knots="false" />
    <inkscape:path-effect
       effect="fillet_chamfer"
       id="path-effect3"
       is_visible="true"
       lpeversion="1"
       nodesatellites_param="F,0,0,1,0,0,0,1 @ F,0,0,1,0,0,0,1 @ F,0,0,1,0,0,0,1 @ F,0,0,1,0,0,0,1"
       radius="0"
       unit="px"
       method="auto"
       mode="F"
       chamfer_steps="1"
       flexible="false"
       use_knot_distance="true"
       apply_no_radius="true"
       apply_with_radius="true"
       only_selected="false"
       hide_knots="false" />
    <inkscape:path-effect
       effect="fillet_chamfer"
       id="path-effect2"
       is_visible="true"
       lpeversion="1"
       nodesatellites_param="F,0,0,1,0,0,0,1 @ F,0,0,1,0,0,0,1 @ F,0,0,1,0,0,0,1 @ F,0,0,1,0,0,0,1"
       radius="0"
       unit="px"
       method="auto"
       mode="F"
       chamfer_steps="1"
       flexible="false"
       use_knot_distance="true"
       apply_no_radius="true"
       apply_with_radius="true"
       only_selected="false"
       hide_knots="false" />
  </defs>
  <g
     inkscape:label="Layer 1"
     inkscape:groupmode="layer"
     id="layer1"
     transform="translate(-2.9151176,-1.3837861)">
    <path
       fill="#017e31"
       d="M 18.675765,1.3837861 H 121.59868 c 8.42697,1.48696 15.35377,8.9243999 16.58408,17.2852299 v 36.438421 c -0.49213,8.61747 -7.4295,16.18985 -15.75329,17.9996 -3.48986,0.75935 -75.352012,0.4587 -79.124971,0.44812 l -1.820537,-3.95745 c 2.409473,0.002 76.593108,-0.0396 77.699068,-0.2213 7.26017,-1.19591 13.08894,-6.41879 14.68173,-13.66572 0.22225,-1.01777 0.33514,-2.33363 0.33867,-3.94759 0.0176,-9.757831 0.0176,-19.514781 0,-29.270851 -0.0159,-9.31598 -7.46919,-16.4888399 -16.54175,-17.1926299 -0.067,-0.005 -0.13141,0.004 -0.19315,0.0291 -0.0388,0.0159 -0.0794,0.0238 -0.12171,0.0238 -31.144976,-0.007 -62.289085,-0.004 -93.432305,0.008 -8.085666,0.005 -14.9648333,6.2362299 -16.6264163,13.9038499 -0.224014,1.03893 -0.336903,2.40065 -0.338667,4.08517 -0.0053,9.53205 -0.0026,19.06323 0.0079,28.593521 0.01058,9.01171 5.9822293,15.20296 14.4092083,17.41752 0.176138,0.0466 0.30928,0.19106 0.341312,0.37042 0.288396,1.60602 0.20373,2.93422 -0.41275,4.55877 -1.956152,5.14879 -3.600979,10.39459 -4.934479,15.73741 -0.645583,2.59292 -1.03452,5.31019 -1.44727,7.99836 -0.04939,0.31926 -0.05733,0.51241 -0.02381,0.57943 0.192264,0.37042 0.433917,0.40482 0.724958,0.10319 8.718021,-9.09637 16.721667,-18.83833 24.598313,-28.6385 0.373062,-0.46566 0.721442,-0.48596 1.274421,-0.4939 l 6.805953,3.90438 -4.693708,0.0291 c -0.09525,0 -0.174625,0.0362 -0.238125,0.10847 -8.879416,10.38225 -17.121187,21.20636 -27.175354,30.532923 -2.315104,2.14842 -4.818062,-0.33867 -4.995333,-2.66435 -0.296333,-3.885853 -0.09966,-7.486833 0.590021,-10.802943 1.012472,-4.87539 2.02759,-8.7339 3.045354,-11.57552 0.746125,-2.08139 1.464028,-4.17336 2.153708,-6.27592 0.02999,-0.09 0,-0.15081 -0.08996,-0.18256 -6.619875,-2.36273 -12.3639793,-8.21796 -13.6154583,-15.34054 -0.185209,-1.06186 -0.278695,-2.81958 -0.280459,-5.27315 -0.0079,-10.080621 0.198438,-20.230041 -0.07144,-30.302731 -0.201083,-7.49829 3.757083,-13.9170799 10.1203123,-17.7508899 2.185459,-1.31763 3.511021,-2.19075 5.632979,-2.59821 z"
       id="path3"
       sodipodi:nodetypes="ccccccccccccccccccccccccccccccccccccccccc"
       style="stroke-width:0.264583" />
    <path
       style="fill:#017e31;fill-opacity:1;stroke-width:0.264583"
       id="rect1"
       width="112.5187"
       height="59.982555"
       x="12.153833"
       y="4.4822583"
       sodipodi:type="rect"
       inkscape:path-effect="#path-effect4"
       d="m 21.350144,4.4822583 h 92.525866 a 10.796527,10.796527 45 0 1 10.79652,10.7965267 l 0,32.473165 A 16.712864,16.712864 135 0 1 107.95967,64.464814 H 22.46383 A 10.309997,10.309997 45 0 1 12.153833,54.154817 l 0,-40.476248 a 9.1963111,9.1963111 135 0 1 9.196311,-9.1963107 z"
       ry="0"
       transform="matrix(1.1509919,0,0,1.0996583,-7.4982654,-0.28938456)" />
    <path
       style="fill:#017e31;fill-opacity:1;stroke-width:0.264583"
       d="m 19.117978,69.184103 c -0.643757,0.796139 -0.09255,1.78598 -0.314619,2.674258 -0.0805,0.321995 -0.169907,0.811741 -0.314619,1.101166 -0.124522,0.249045 -0.410786,0.480836 -0.471928,0.786546 -0.05823,0.291142 -0.03474,1.170649 -0.157309,1.415785 -0.11763,0.23526 -0.256846,0.497681 -0.314619,0.786546 -0.0617,0.308509 0.07631,0.638632 0,0.943856 -0.01799,0.07194 -0.139323,0.08537 -0.157309,0.15731 -0.03815,0.152612 0.01951,0.315833 0,0.471927 -0.03316,0.265311 -0.127783,0.520808 -0.157309,0.786548 -0.131946,1.187508 0.16888,2.43595 0,3.618114 -0.01658,0.116072 -0.128872,0.200866 -0.157309,0.314618 -0.02543,0.10174 0.0469,0.220816 0,0.314619 -0.02345,0.0469 -0.13386,-0.0469 -0.15731,0 -0.127691,0.255381 -0.02729,0.68381 -0.157309,0.943856 -0.05244,0.104873 -0.262182,0.05244 -0.314619,0.157308 -0.121561,0.243123 -0.193058,0.543425 -0.314619,0.786548 -0.06633,0.132654 -0.248291,0.181962 -0.314618,0.314619 -0.0469,0.0938 0.0469,0.220816 0,0.314618 -0.131488,0.262975 -0.379883,0.510411 -0.471928,0.786546 -0.03316,0.09949 0.03316,0.215127 0,0.314618 -0.02345,0.07035 -0.133859,0.08696 -0.157309,0.157311 -0.04975,0.149236 0.07035,0.331224 0,0.471927 -0.156774,0.313547 -0.224436,0.335632 -0.314619,0.786548 -0.03771,0.188566 0.08987,0.606811 0,0.786545 -0.09162,0.183245 -0.222996,0.288682 -0.314619,0.471927 -0.07549,0.150979 0.05036,0.478168 0,0.629237 -0.02345,0.07035 -0.133859,0.08696 -0.157309,0.157311 -0.08455,0.253653 -0.104873,0.524364 -0.157309,0.786545 -0.07051,0.352566 0.04469,0.743614 0,1.101167 -0.08999,0.719923 -0.266139,1.113033 -0.471928,1.730401 -0.0898,0.269383 0.125765,0.692328 0,0.943857 -0.02345,0.0469 -0.133859,-0.0469 -0.15731,0 -0.143628,0.287258 -0.03514,1.799013 0,2.045022 0.08079,0.565518 0.558068,1.273442 0.786547,1.730402 0.07759,0.15518 0.03081,1.446591 0.157309,1.573093 0.03708,0.03708 0.120231,-0.03708 0.15731,0 0.03708,0.03708 -0.0469,0.133858 0,0.157308 0.166306,0.08315 0.453061,0.06922 0.629237,0.157311 0.362866,0.181429 0.795062,0.469089 1.258474,0.314619 0.460311,-0.15344 0.62267,-0.622671 0.943856,-0.943857 0.176884,-0.176884 0.576462,-0.331872 0.786547,-0.471929 0.311639,0.01569 0.0744,-0.231709 0.157309,-0.314619 0.360643,-0.360643 0.950429,-0.481785 1.258475,-0.943853 0.02909,-0.04363 0,-0.104873 0,-0.157311 0.05244,-0.104873 0.08696,-0.220818 0.157309,-0.314618 0.307305,-0.409739 0.319619,-0.17231 0.471928,-0.629238 0.06095,-0.182851 0.07402,-0.46265 0.157309,-0.629237 0.13036,-0.26072 0.450952,-0.293643 0.629238,-0.471927 0.03708,-0.03708 -0.02345,-0.11041 0,-0.15731 0.117251,-0.234503 0.314618,-0.419492 0.471928,-0.629238 0.380431,-0.50724 0.907033,-0.888621 1.258474,-1.415783 0.258475,-0.387712 0.293093,-0.922329 0.629237,-1.258474 0.09804,-0.09804 0.381917,-0.142169 0.629238,-0.47193 0.299749,-0.399663 0.5082,-0.840954 0.786547,-1.258474 0.08227,-0.123402 0.248291,-0.181962 0.314618,-0.314619 0.112746,-0.225491 0.141139,-0.555239 0.314619,-0.786545 0.186337,-0.248449 0.488452,-0.504976 0.629237,-0.786546 0.153454,-0.306909 0.193593,-0.508211 0.471928,-0.786548 0.342105,-0.342103 0.857808,-0.519435 1.258475,-0.786545 0.354273,-0.236183 2.330798,-2.144649 2.516948,-2.51695 0.220105,-0.440211 0.735172,-1.364411 1.101167,-1.730404 0.03708,-0.03708 0.128223,0.04363 0.157308,0 0.167111,-0.250663 0.340286,-0.680569 0.471927,-0.943856 0.0469,-0.0938 -0.03316,-0.215127 0,-0.314619 0.05154,-0.154617 0.251089,-0.848558 0.314619,-0.943856 0.02909,-0.04363 0.13386,0.0469 0.15731,0 0.0469,-0.0938 -0.02543,-0.212875 0,-0.314618 0.0072,-0.02878 0.462603,-0.777219 0.471927,-0.786546 0.237069,-0.237069 0.655502,-0.04197 0.943856,-0.157308 0.137705,-0.05508 0.191217,-0.232351 0.314619,-0.314618 0.179922,-0.119949 0.606628,-0.194673 0.786548,-0.314619 0.185105,-0.123404 0.260874,-0.401579 0.471926,-0.471929 0.09949,-0.03316 0.220819,0.0469 0.314619,0 0.0469,-0.02344 -0.03708,-0.120232 0,-0.157308 0.02482,-0.02482 0.919046,-0.60443 0.943856,-0.629238 0.03708,-0.03708 -0.03708,-0.120232 0,-0.15731 0.08291,-0.08291 0.217062,-0.09227 0.314619,-0.157308 0.445254,-0.296836 0.82093,-0.838124 1.101167,-1.258475 0.171315,-0.256974 0.578614,-0.317341 0.786545,-0.629238 0.872106,-1.308158 1.957311,-2.46404 2.831568,-3.775424 0.147323,-0.220985 1.657644,-2.117778 1.258475,-2.516949 -0.03708,-0.03708 -0.110408,0.02344 -0.157311,0 -0.654682,-0.327343 0.168169,0.01085 -0.157308,-0.314619 -0.18088,-0.18088 -0.860597,-0.13058 -1.101167,-0.157308 -1.778386,-0.197599 -3.554563,-0.157311 -5.348515,-0.157311 -1.730404,0 -3.460805,0 -5.191207,0 -0.766738,0 -1.60089,0.09485 -2.35964,0 -0.316496,-0.03956 -0.624898,-0.157308 -0.943856,-0.157308 -0.861645,0 -1.820111,0.192596 -2.674259,0.314619 -0.503345,0.07191 -1.262265,0.0013 -1.730403,0.157308 -0.07035,0.02344 -0.08696,0.133858 -0.157309,0.157311 -0.361245,0.120414 -0.921579,-0.16845 -1.258474,0 -0.431446,0.215722 -0.735859,0.05331 -0.943856,0.157308 -0.653291,0.326646 -1.264748,0.434168 -2.045021,0.629237 z"
       id="path4" />
  </g>
</svg>
