<?xml version="1.0" encoding="UTF-8" standalone="no"?>
<svg
   version="1.1"
   viewBox="0.00 0.00 512.00 392.00"
   id="svg10"
   sodipodi:docname="abair.ie_hollow_vector.svg"
   inkscape:version="1.3 (0e150ed, 2023-07-21)"
   xmlns:inkscape="http://www.inkscape.org/namespaces/inkscape"
   xmlns:sodipodi="http://sodipodi.sourceforge.net/DTD/sodipodi-0.dtd"
   xmlns="http://www.w3.org/2000/svg"
   xmlns:svg="http://www.w3.org/2000/svg">
  <defs
     id="defs10" />
  <sodipodi:namedview
     id="namedview10"
     pagecolor="#ffffff"
     bordercolor="#000000"
     borderopacity="0.25"
     inkscape:showpageshadow="2"
     inkscape:pageopacity="0.0"
     inkscape:pagecheckerboard="0"
     inkscape:deskcolor="#d1d1d1"
     inkscape:zoom="1.2038493"
     inkscape:cx="218.88122"
     inkscape:cy="234.24859"
     inkscape:window-width="1512"
     inkscape:window-height="863"
     inkscape:window-x="1920"
     inkscape:window-y="38"
     inkscape:window-maximized="0"
     inkscape:current-layer="svg10" />
  <path
     fill="#017e31"
     d="m 60.32,0 h 389 c 31.85,5.62 58.03,33.73 62.68,65.33 v 137.72 c -1.86,32.57 -28.08,61.19 -59.54,68.03 -13.19,2.87 -284.79502,1.73369 -299.05502,1.69369 l -6.88077,-14.9573 c 9.10667,0.007 289.48579,-0.14972 293.66579,-0.83639 27.44,-4.52 49.47,-24.26 55.49,-51.65 0.84,-3.84667 1.26667,-8.82 1.28,-14.92 0.0667,-36.88 0.0667,-73.75667 0,-110.63 -0.06,-35.21 -28.23,-62.32 -62.52,-64.98 -0.25333,-0.02 -0.49667,0.01667 -0.73,0.11 -0.14667,0.06 -0.3,0.09 -0.46,0.09 C 315.53667,14.973333 197.82667,14.983333 80.12,15.03 49.56,15.05 23.56,38.6 17.28,67.58 16.433333,71.506667 16.006667,76.653333 16,83.02 c -0.02,36.02667 -0.01,72.05 0.03,108.07 0.04,34.06 22.61,57.46 54.46,65.83 0.665717,0.17601 1.168932,0.72213 1.29,1.4 1.09,6.07 0.77,11.09 -1.56,17.23 -7.393333,19.46 -13.61,39.28667 -18.65,59.48 -2.44,9.8 -3.91,20.07 -5.47,30.23 -0.186667,1.20667 -0.216667,1.93667 -0.09,2.19 0.726667,1.4 1.64,1.53 2.74,0.39 32.95,-34.38 63.2,-71.2 92.97,-108.24 1.41,-1.76 2.72671,-1.83671 4.81671,-1.86671 L 172.26,272.49 154.52,272.6 c -0.36,0 -0.66,0.13667 -0.9,0.41 -33.56,39.24 -64.71,80.15 -102.71,115.4 -8.75,8.12 -18.21,-1.28 -18.88,-10.07 -1.12,-14.68667 -0.376667,-28.29667 2.23,-40.83 3.826667,-18.42667 7.663333,-33.01 11.51,-43.75 2.82,-7.86667 5.533333,-15.77333 8.14,-23.72 0.113333,-0.34 0,-0.57 -0.34,-0.69 C 28.55,260.42 6.84,238.29 2.11,211.37 1.41,207.35667 1.0566667,200.71333 1.05,191.44 1.02,153.34 1.8,114.98 0.78,76.91 0.02,48.57 14.98,24.31 39.03,9.82 47.29,4.84 52.3,1.54 60.32,0 Z"
     id="path3"
     sodipodi:nodetypes="ccccccccccccccccccccccccccccccccccccccccc" />
  <path
     fill="#017e31"
     d="   M 134.96 161.85   L 134.92 166.78   A 1.26 1.25 0.2 0 1 133.66 168.02   L 119.07 167.96   A 1.38 1.38 0.0 0 1 117.70 166.58   L 117.74 90.10   A 0.64 0.64 0.0 0 1 118.40 89.46   L 134.09 89.78   A 1.04 1.04 0.0 0 1 135.11 90.84   L 134.57 118.80   A 0.69 0.69 0.0 0 0 135.60 119.41   C 139.07 117.40 141.26 113.98 144.69 112.53   C 161.77 105.26 175.68 116.89 177.67 133.79   Q 177.95 136.15 177.70 144.24   C 177.16 161.16 162.78 174.34 145.63 167.84   C 142.18 166.53 140.02 163.54 137.45 160.86   A 1.45 1.45 0.0 0 0 134.96 161.85   Z   M 159.39 132.54   C 157.09 123.99 148.29 119.29 140.65 125.28   C 132.13 131.95 132.95 156.42 147.26 157.00   C 160.60 157.54 161.92 141.99 159.39 132.54   Z"
     id="path4" />
  <rect
     fill="#017e31"
     x="-9.08"
     y="-7.08"
     transform="translate(271.82,96.57) rotate(-0.4)"
     width="18.16"
     height="14.16"
     rx="0.94"
     id="rect4" />
  <rect
     fill="#017e31"
     x="-9.04"
     y="-7.07"
     transform="translate(383.94,96.58) rotate(-0.1)"
     width="18.08"
     height="14.14"
     rx="0.94"
     id="rect5" />
  <path
     fill="#017e31"
     d="   M 299.00 167.06   L 299.01 112.75   A 1.19 1.18 89.8 0 1 300.18 111.56   L 314.61 111.37   A 1.26 1.26 0.0 0 1 315.89 112.60   L 316.05 119.30   Q 316.11 121.83 317.85 120.00   C 320.11 117.61 321.68 114.37 325.38 113.01   Q 330.72 111.05 336.24 109.69   Q 338.77 109.06 339.24 111.22   Q 340.88 118.64 338.94 125.85   Q 338.77 126.47 338.22 126.13   C 326.90 119.09 316.34 129.67 316.17 141.26   Q 315.97 154.51 315.99 167.48   A 0.83 0.82 1.3 0 1 315.12 168.30   C 310.64 168.11 304.16 168.92 299.48 167.68   Q 299.00 167.55 299.00 167.06   Z"
     id="path5" />
  <path
     fill="#017e31"
     d="   M 82.33 160.39   Q 81.52 160.89 80.58 161.84   Q 72.16 170.35 60.00 169.19   C 45.43 167.78 38.72 153.15 46.45 140.93   C 53.12 130.37 71.36 132.89 81.73 132.48   Q 82.68 132.44 82.90 131.52   C 84.39 125.38 76.59 121.98 71.83 121.61   Q 59.85 120.67 49.22 125.99   A 0.40 0.39 76.3 0 1 48.65 125.64   L 48.45 113.56   A 0.74 0.73 -4.8 0 1 49.09 112.81   C 63.73 110.64 91.43 105.19 98.38 124.10   Q 99.75 127.84 99.72 136.18   Q 99.68 151.46 99.99 166.94   Q 100.01 168.05 98.91 168.04   L 83.07 167.92   A 0.71 0.70 5.5 0 1 82.38 167.09   L 83.43 161.13   A 0.73 0.72 -10.9 0 0 82.33 160.39   Z   M 82.16 142.34   C 77.02 141.79 64.47 141.24 61.68 146.97   C 55.03 160.60 83.33 164.07 82.80 143.03   Q 82.78 142.41 82.16 142.34   Z"
     id="path6" />
  <path
     fill="#017e31"
     d="   M 226.45 160.15   Q 218.23 171.04 205.00 169.21   C 190.18 167.16 184.22 152.73 191.92 140.42   C 198.06 130.58 217.12 132.88 226.76 132.62   Q 227.20 132.61 227.38 132.21   Q 229.47 127.58 226.00 125.05   C 217.32 118.73 203.18 121.90 194.06 125.57   Q 193.49 125.80 193.49 125.19   L 193.52 113.54   A 0.57 0.57 0.0 0 1 194.00 112.98   Q 209.04 110.48 215.00 110.21   C 227.94 109.64 244.42 114.26 244.47 130.10   Q 244.53 148.54 244.49 167.12   Q 244.49 168.07 243.54 168.08   L 230.16 168.15   Q 227.90 168.16 227.70 165.92   L 227.19 160.36   A 0.41 0.41 0.0 0 0 226.45 160.15   Z   M 208.44 156.06   Q 218.85 161.62 225.71 152.16   Q 228.99 147.64 227.38 142.61   A 0.78 0.77 -7.0 0 0 226.68 142.07   C 221.96 141.79 210.96 141.66 207.60 145.60   C 205.56 147.98 204.94 154.19 208.44 156.06   Z"
     id="path7" />
  <path
     fill="#017e31"
     d="   M 420.25 165.24   C 401.70 154.56 401.71 121.56 422.94 113.39   C 445.60 104.66 469.03 116.23 466.93 142.41   Q 466.81 143.98 465.24 143.98   L 426.53 144.01   Q 425.16 144.01 424.65 145.28   C 423.95 147.05 425.43 149.05 426.00 150.44   C 430.67 161.75 449.03 157.93 457.91 154.98   Q 458.39 154.82 458.70 154.42   C 459.83 152.95 463.37 150.53 463.97 153.46   Q 465.00 158.51 463.73 164.30   Q 463.62 164.80 463.14 164.98   C 450.94 169.63 432.01 172.01 420.25 165.24   Z   M 425.12 133.99   L 449.32 134.29   A 0.21 0.21 0.0 0 0 449.53 134.08   L 449.54 133.97   A 12.32 12.29 -89.3 0 0 437.40 121.50   L 437.36 121.50   A 12.32 12.29 -89.3 0 0 424.92 133.67   L 424.92 133.78   A 0.21 0.21 0.0 0 0 425.12 133.99   Z"
     id="path8" />
  <rect
     fill="#017e31"
     x="262.75"
     y="111.50"
     width="18.04"
     height="56.46"
     rx="0.92"
     id="rect8" />
  <rect
     fill="#017e31"
     x="374.95"
     y="111.52"
     width="18.08"
     height="56.46"
     rx="1.02"
     id="rect9" />
  <rect
     fill="#017e31"
     x="-8.76"
     y="-9.68"
     transform="translate(346.04,158.27) rotate(0.3)"
     width="17.52"
     height="19.36"
     rx="1.07"
     id="rect10" />
</svg>
